<?xml version="1.0" encoding="utf-8"?>
<!-- Generator: Adobe Illustrator 16.0.0, SVG Export Plug-In . SVG Version: 6.00 Build 0)  -->
<!DOCTYPE svg PUBLIC "-//W3C//DTD SVG 1.1//EN" "http://www.w3.org/Graphics/SVG/1.1/DTD/svg11.dtd">
<svg version="1.1" id="Layer_1" xmlns="http://www.w3.org/2000/svg" xmlns:xlink="http://www.w3.org/1999/xlink" x="0px" y="0px"
	 width="80px" height="80px" viewBox="0 0 80 80" enable-background="new 0 0 80 80" xml:space="preserve">
<path fill="#A9DBF0" d="M75.625,63.774c0,6.588-5.373,11.93-12,11.93h-47.5c-6.627,0-12-5.342-12-11.93V16.18
	c0-6.588,5.373-11.93,12-11.93h47.5c6.627,0,12,5.341,12,11.93V63.774z"/>
<polygon fill="#F18318" points="36.5,62.5 28.667,62.5 5.5,19.667 13.334,19.667 "/>
<polygon fill="#CC6715" points="43.667,62.418 51.501,62.418 74.666,19.584 66.832,19.584 "/>
<polygon fill="#CC6D17" points="28.415,62.499 36.249,62.499 43.91,48.265 38.999,42.833 "/>
<polygon fill="#F18318" points="51.583,62.416 43.749,62.416 31,39 38.833,39 "/>
</svg>
